<svg xmlns="http://www.w3.org/2000/svg" width="256" height="256" viewBox="0 0 256 256" role="img" aria-label="FairHuur logo">
  <defs>
    <linearGradient id="bg" x1="0" y1="0" x2="1" y2="1">
      <stop offset="0" stop-color="#7c5cff"/>
      <stop offset="1" stop-color="#21d4fd"/>
    </linearGradient>
    <filter id="soft" x="-20%" y="-20%" width="140%" height="140%">
      <feDropShadow dx="0" dy="10" stdDeviation="10" flood-color="rgba(0,0,0,.35)"/>
    </filter>
  </defs>

  <rect x="24" y="24" width="208" height="208" rx="52" fill="url(#bg)" filter="url(#soft)"/>
  <path d="M78 124L128 86l50 38v62c0 10-8 18-18 18H96c-10 0-18-8-18-18v-62z" fill="rgba(10,12,18,.92)"/>
  <path d="M112 204v-38c0-8 6-14 14-14h4c8 0 14 6 14 14v38" fill="rgba(10,12,18,.92)"/>

  <circle cx="178" cy="98" r="22" fill="rgba(10,12,18,.95)"/>
  <path d="M170 98l6 6 14-14" fill="none" stroke="rgba(255,255,255,.95)" stroke-width="6" stroke-linecap="round" stroke-linejoin="round"/>
</svg>