<svg xmlns="http://www.w3.org/2000/svg" width="128" height="128" viewBox="0 0 128 128">
  <defs>
    <linearGradient id="g" x1="0" y1="0" x2="1" y2="1">
      <stop offset="0" stop-color="#7c5cff"/>
      <stop offset="1" stop-color="#21d4fd"/>
    </linearGradient>
  </defs>
  <rect x="10" y="10" width="108" height="108" rx="24" fill="url(#g)"/>
  <path d="M33 62 L64 38 L95 62 V92 a8 8 0 0 1-8 8 H41 a8 8 0 0 1-8-8 Z" fill="#0b0d12" opacity="0.95"/>
  <path d="M54 92 V72 a6 6 0 0 1 6-6 h8 a6 6 0 0 1 6 6 v20" fill="#0b0d12" opacity="0.95"/>
  <path d="M88 48 l8 8 -22 22 -10-10 8-8 2 2 14-14z" fill="#0b0d12" opacity="0.95"/>
</svg>
